<svg xmlns="http://www.w3.org/2000/svg" xmlns:xlink="http://www.w3.org/1999/xlink" width="1098" height="812" viewBox="0 0 1097.1 811.81"><defs><linearGradient id="A" x1="593.13" y1="855.9" x2="593.13" y2="67.88" gradientUnits="userSpaceOnUse"><stop offset="0" stop-color="gray" stop-opacity=".25"/><stop offset=".54" stop-color="gray" stop-opacity=".12"/><stop offset="1" stop-color="gray" stop-opacity=".1"/></linearGradient><path id="B" d="M1036.04 504c-5.5 6.9-33.9 17-33.9 17s3.42-30 8.9-36.85a16 16 0 0 1 28.107 3.616 16 16 0 0 1-3.107 16.264z"/><path id="C" d="M1026.3 558.65c-8.36 2.8-37.68-4.18-37.68-4.18s19.15-23.28 27.5-26.1a16 16 0 0 1 21.678 18.313 16 16 0 0 1-11.508 11.957z"/><path id="D" d="M973.43 623.26c-8.63-1.8-30.42-22.63-30.42-22.63s28.28-10.43 36.92-8.64c8.113 2.26 13.084 10.424 11.37 18.67s-9.528 13.75-17.87 12.6z"/><path id="E" d="M922.43 663.14c-8.8-.3-33.8-17.16-33.8-17.16s26.12-15.08 34.93-14.76c8.382.853 14.666 8.06 14.37 16.48s-7.07 15.168-15.5 15.43z"/><path id="F" d="M961.3 534.9c1.13 8.75 20.22 32.07 20.22 32.07s12.57-27.4 11.45-36.15a16 16 0 0 0-25.948-11.503 16 16 0 0 0-5.722 15.582z"/><path id="G" d="M902.25 582.34c3.7 8 28.9 24.55 28.9 24.55s3.8-29.9.1-37.9a16 16 0 0 0-28.193-3.202 16 16 0 0 0-.807 16.572z"/><path id="H" d="M851.17 636.28c2.28 8.52 24.33 29.08 24.33 29.08s8.8-28.83 6.5-37.35a16 16 0 0 0-27.258-7.948 16 16 0 0 0-3.582 16.218z"/><path id="I" d="M614.8 466.3l-20 191-107 34s-139-26-103-101c25.6-53.35 24.9-148.7 22.36-199.3-1-20.54-2.36-33.7-2.36-33.7s182-159 167-16c-2.9 27.7-3.07 49.34-1.46 66.26C577.1 478 614.8 466.3 614.8 466.3z"/><path id="J" d="M668.8 582.3c-9-9-70-20-70-20 2 24-72 61-72 61l5.5 188h-35.48l-6-169 17-24 2.07-2.15c9.85-10.21 19.034-21.047 27.5-32.44l22.4-27.38c42.8-52.6 20.84-114.75 14.28-127.6l-.4-.8c-.24-.47-.43-.83-.6-1.1-.04-.094-.092-.185-.15-.27-.04-.064-.078-.13-.1-.2 0 0 18-4 50 30a93.75 93.75 0 0 1 11 14.66c26 41.72 42.92 119.2 35 111.27z"/></defs><g opacity=".1"><path d="M878.46 575.15s-78.32-10.17-19.9 116.6c0 0 53.23-22.8 55.35-74.26.892-20.724-13.856-38.84-34.33-42.17z" fill="#6c63ff"/><g stroke-miterlimit="10" stroke="#535461" fill="none"><path d="M879.6 574.96s17.73 70.68-21 116.8"/><path d="M857.55 698.28s28.2-69.5 80.86-95.28a113.65 113.65 0 0 0 51.61-50.1 191.14 191.14 0 0 0 12.93-32.47" stroke-width="2"/></g><g fill="#6c63ff"><use xlink:href="#B"/><use xlink:href="#C"/><use xlink:href="#D"/><use xlink:href="#E"/><use xlink:href="#F"/><use xlink:href="#G"/><use xlink:href="#H"/></g><use xlink:href="#B" opacity=".25"/><use xlink:href="#C" opacity=".25"/><use xlink:href="#D" opacity=".25"/><use xlink:href="#E" opacity=".25"/><use xlink:href="#F" opacity=".25"/><use xlink:href="#G" opacity=".25"/><use xlink:href="#H" opacity=".25"/><path d="M895.1 729.9s28.2-69.5 80.86-95.28c22.164-10.68 40.264-28.264 51.58-50.1a191.13 191.13 0 0 0 12.93-32.47" fill="none" stroke="#535461" stroke-miterlimit="10" stroke-width="2"/><path d="M1073.55 535.6c-5.5 6.9-33.9 17-33.9 17s3.42-30 8.9-36.85c5.657-6.288 15.232-7.087 21.853-1.822s8 14.773 3.147 21.702zm-9.73 54.65c-8.36 2.8-37.68-4.18-37.68-4.18s19.15-23.28 27.5-26.1c8.152-2.163 16.583 2.374 19.27 10.37a16 16 0 0 1-9.1 19.9zm-52.86 64.65c-8.63-1.8-30.42-22.63-30.42-22.63s28.28-10.43 36.92-8.64c8.113 2.26 13.084 10.424 11.37 18.67s-9.527 13.75-17.87 12.6zm-51 39.83c-8.8-.3-33.8-17.16-33.8-17.16s26.12-15.06 34.93-14.75c8.382.853 14.666 8.06 14.37 16.48s-7.07 15.168-15.5 15.43zm38.87-128.2c1.13 8.75 20.22 32.07 20.22 32.07s12.57-27.4 11.45-36.15a16 16 0 1 0-31.67 4.08zm-59.05 47.36c3.7 8 28.9 24.55 28.9 24.55s3.8-29.9.1-37.9a15.99 15.99 0 0 0-20.768-6.9c-7.662 3.542-11.264 12.406-8.232 20.28zm-51.08 54c2.28 8.52 24.33 29.08 24.33 29.08s8.8-28.83 6.5-37.35a16.01 16.01 0 0 0-19.3-10.294 16 16 0 0 0-11.55 18.564z" fill="#6c63ff"/></g><path d="M11.85 429.97c17.36 74.2 54.1 138.34 112.2 169.43 120.7 64.6 392.9 31.3 596.07-7a465.21 465.21 0 0 0 264.53-151.2zM1077.2 80.7H965.73a9.64 9.64 0 0 1-9.635-9.635 9.64 9.64 0 0 1 9.635-9.635H985a9.64 9.64 0 0 1-9.635-9.635A9.63 9.63 0 0 1 985 42.17h-13.76a9.64 9.64 0 0 1-9.635-9.635 9.64 9.64 0 0 1 9.635-9.635h58.18c-12.9-6-28-10.27-45.38-12.5-158.64-20.4-215.28-6.9-235.26 7-24.65 17.1-52.15 29.68-81.54 35.74-97.9 20.17-280.94 44.47-446.85-7.8-82.46-26-143.75 17.92-180.48 91.28h1056.64c-1.38-21.32-5.5-41-13.1-58.24a9.58 9.58 0 0 1-6.26 2.34zM2.4 275.1a491.06 491.06 0 0 0 4.33 129.46l978.68 35.8a459.99 459.99 0 0 0 68-103.7zm387.08 92.35H370.2a9.64 9.64 0 0 1 9.635 9.635 9.64 9.64 0 0 1-9.635 9.635H258.73c-3.442 0-6.623-1.836-8.344-4.817a9.64 9.64 0 0 1 0-9.635c1.72-2.98 4.902-4.818 8.344-4.818H278a9.64 9.64 0 0 1-9.635-9.635A9.64 9.64 0 0 1 278 348.18h-13.76a9.64 9.64 0 0 1-9.635-9.635 9.64 9.64 0 0 1 9.635-9.635h111.46c3.442 0 6.623 1.836 8.344 4.817a9.64 9.64 0 0 1 0 9.635c-1.72 2.98-4.902 4.817-8.344 4.817h13.76a9.64 9.64 0 0 1 9.635 9.635 9.64 9.64 0 0 1-9.635 9.635zm707.12-230.17l-1068.5 26c-13 33.4-21.56 71.18-25.56 110.33h1075.33a456.54 456.54 0 0 0 15.53-70.33c3.2-23 4.48-45.27 3.2-66zm-877.13 85.17H200.2a9.64 9.64 0 0 1 9.635 9.635 9.64 9.64 0 0 1-9.635 9.635H88.73c-3.442 0-6.623-1.836-8.344-4.818a9.64 9.64 0 0 1 0-9.635c1.72-2.98 4.902-4.817 8.344-4.817H108a9.64 9.64 0 0 1-9.635-9.635A9.64 9.64 0 0 1 108 203.18H94.24a9.64 9.64 0 0 1-9.635-9.635 9.64 9.64 0 0 1 9.635-9.635h111.46a9.64 9.64 0 0 1 9.635 9.635 9.64 9.64 0 0 1-9.635 9.635h13.76a9.64 9.64 0 0 1 9.635 9.635 9.64 9.64 0 0 1-9.635 9.635z" opacity=".1" fill="#6c63ff"/><path d="M990.13 855.4S945.57 611 860.6 571.34c-72-33.63-149.86-56.3-172-62.45A95.61 95.61 0 0 0 677.19 494c-30.26-31.6-48.44-31-51.38-30.6a153.83 153.83 0 0 1-3-19l-.26-2.92.26-.13-.48-5.85a150.6 150.6 0 0 0 33.79-24.61l.38 1.3q32.7-27.65 64.07-56.8c6-5.6 12.3-11.7 14.34-19.6a28.78 28.78 0 0 0 .75-8.32c.27-6-1.15-12.13-1.4-18.2 0-1 .1-1.93.24-2.88 1.4-9.95 8.32-18.12 14-26.47a124.82 124.82 0 0 0 21.23-71.46 121 121 0 0 0-5-36c-4.43-14.82-13.65-30.4-29-33.63-5.94-1.25-12.1-.47-18.17-.86-25.1-1.6-43.87-22-63.88-36.95a168.61 168.61 0 0 0-83.58-32.44c-9.45-1-19.2-1.07-28.2 1.93-20.2 6.72-32.45 27.47-51.9 36-14.38 6.34-31 5.3-46 10.07-22.33 7.1-41.28 30-41.78 53.53v3.05c-.25 11.9 4 24 4.34 36.17q0 1.65.05 3.3c-.1 13.14-1.68 26.32-6.47 38.67-2.58 6.65-5.9 14.35-5.36 21-.3 4.07.5 7.9 3.32 11l4.83-4.26a146 146 0 0 0-2.43 26.58c0 44.94 20.44 85.18 52.68 112.26q.28 4.5.54 9.62c.76 14.82 1.36 33.4 1.2 53.67l-47.16 43.35-121.24 55s-110.88 23.42-87 179.2l11.4 96.72h101.23l-.23.5h150.25l.1-.5h357.48l-.07.5h14v-.5zM626.7 465.87a103.92 103.92 0 0 1 7.2 19.8 81.11 81.11 0 0 1-7.77-20.88l.15.27zm-171.82 20q0 2.86-.1 5.77l-.24.34a49 49 0 0 1 .34-6.16z" transform="translate(-51.45 -44.1)" fill="url(#A)"/><use xlink:href="#I" fill="#fdc2cc"/><use xlink:href="#I" opacity=".03"/><path d="M571.8 338.3c-2.9 27.7-3.07 49.34-1.46 66.26-52.592 28.712-117.424 22.137-163.18-16.55-1-20.54-2.36-33.7-2.36-33.7s182-159 167-16z" opacity=".1"/><circle cx="500.8" cy="271.31" r="145" fill="#fdc2cc"/><circle cx="500.8" cy="271.31" r="145" opacity=".03"/><g fill="#6c63ff"><path d="M924.8 811.3h-752l-11-95c-23-153 84-176 84-176l117-54 46.5-43.5c-15 57 98.5 175.5 98.5 175.5a26.88 26.88 0 0 0 2.07-2.15c3.06-3.34 10.37-11.7 27.5-32.44l22.4-27.38c42.8-52.6 20.84-114.75 14.28-127.6l-.4-.8-.6-1.1c-.04-.094-.092-.185-.15-.27a1.62 1.62 0 0 1-.11-.2l55 43 6 1.66c21.4 6 96.58 28.3 166 61.34 82 38.93 125 278.93 125 278.93z"/><use xlink:href="#J"/></g><use xlink:href="#J" opacity=".1"/><path d="M261.8 659.3s47 96 49.5 152.5m462.5-97.5l-13.5 97.5h13.5v-97.5z" opacity=".1"/><path d="M272.3 811.8l74.5-169.5s21-40 26-80 32-103 32-103 67-85 98-73-27 57-27 57 85 33 27 131-59 80-59 80l-28.5 157.5z" opacity=".1"/><path d="M270.3 811.8l74.5-169.5s21-40 26-80c3.18-25.43 15.25-60.16 23.62-82.1 5.463-14.337 13.502-27.554 23.72-39 21.66-24.24 61-63.33 82.66-54.93 31 12-27 57-27 57s85 33 27 131-59 80-59 80l-28.5 157.5z" fill="#fdc2cc"/><g fill="#fff"><circle cx="545.3" cy="189.81" r="3" opacity=".15"/><circle cx="531.3" cy="195.81" r="3" opacity=".15"/></g><path d="M397.8 88.58c14.47-4.68 30.53-3.67 44.4-9.9 18.77-8.42 30.6-28.8 50.08-35.4 8.68-2.94 18.1-2.83 27.2-1.9 29.295 3.05 57.193 14.072 80.66 31.87 19.3 14.7 37.43 34.72 61.64 36.3 5.85.38 11.8-.4 17.53.84 14.84 3.18 23.73 18.47 28 33A124.26 124.26 0 0 1 691.66 246c-5.48 8.2-12.16 16.23-13.5 26-1.32 9.58 2.76 19.5.38 28.9-2 7.77-8 13.75-13.84 19.26q-30.25 28.6-61.83 55.75c-10.94-34.76 5.1-72.2 2.6-108.54-1-14.16-6-29.62-18.5-36.3-11.7-6.24-26.63-3-38.46-9-13.2-6.65-18.62-22.4-28.6-33.3-17-18.6-46.5-21-70.28-12.6s-43.2 25.68-62 42.53l-34.17 30.65c-6.67-7.52-1.6-19.06 2-28.46 5.38-14.1 6.56-29.28 6.2-44.24-.3-12-4.43-23.85-4.2-35.53.48-23.04 18.76-45.56 40.3-52.53z" opacity=".1"/><path d="M397.8 85.58c14.47-4.68 30.53-3.67 44.4-9.9 18.77-8.42 30.6-28.8 50.08-35.4 8.68-2.94 18.1-2.83 27.2-1.9 29.295 3.05 57.193 14.072 80.66 31.87 19.3 14.7 37.43 34.72 61.64 36.3 5.85.38 11.8-.4 17.53.84 14.84 3.18 23.73 18.47 28 33A124.26 124.26 0 0 1 691.66 243c-5.48 8.2-12.16 16.23-13.5 26-1.32 9.58 2.76 19.5.38 28.9-2 7.77-8 13.75-13.84 19.26q-30.25 28.6-61.83 55.75c-10.94-34.76 5.1-72.2 2.6-108.54-1-14.16-6-29.62-18.5-36.3-11.7-6.24-26.63-3-38.46-9-13.2-6.65-18.62-22.4-28.6-33.3-17-18.6-46.5-21-70.28-12.6s-43.2 25.68-62 42.53l-34.17 30.65c-6.67-7.52-1.6-19.06 2-28.46 5.38-14.1 6.56-29.28 6.2-44.24-.3-12-4.43-23.85-4.2-35.53.48-23.04 18.76-45.56 40.3-52.53z" fill="#865a61"/></svg>